# Blender 4.0.2
# www.blender.org
mtllib wall.mtl
o Cube
v -0.259082 -1.236156 2.473468
v -0.259082 1.236156 2.473468
v -0.259082 -1.236156 -2.473468
v -0.259082 1.236156 -2.473468
v 0.259082 -1.236156 2.473468
v 0.259082 1.236156 2.473468
v 0.259082 -1.236156 -2.473468
v 0.259082 1.236156 -2.473468
vn -1.0000 -0.0000 -0.0000
vn -0.0000 -0.0000 -1.0000
vn 1.0000 -0.0000 -0.0000
vn -0.0000 -0.0000 1.0000
vn -0.0000 -1.0000 -0.0000
vn -0.0000 1.0000 -0.0000
vt 1.000000 0.000000
vt 0.000000 0.501953
vt 0.000000 0.000000
vt 1.000000 0.000000
vt 0.761719 0.500000
vt 0.761719 0.000000
vt 0.998047 0.500000
vt 0.005859 0.998047
vt 0.005859 0.500000
vt 0.248047 0.498047
vt 0.001953 1.000000
vt 0.001953 0.498047
vt 0.375000 0.500000
vt 0.125000 0.750000
vt 0.125000 0.500000
vt 0.875000 0.500000
vt 0.625000 0.750000
vt 0.625000 0.500000
vt 1.000000 0.501953
vt 1.000000 0.500000
vt 0.998047 0.998047
vt 0.248047 1.000000
vt 0.375000 0.750000
vt 0.875000 0.750000
s 0
usemtl Material.003
f 2/1/1 3/2/1 1/3/1
f 4/4/2 7/5/2 3/6/2
f 8/7/3 5/8/3 7/9/3
f 6/10/4 1/11/4 5/12/4
f 7/13/5 1/14/5 3/15/5
f 4/16/6 6/17/6 8/18/6
f 2/1/1 4/19/1 3/2/1
f 4/4/2 8/20/2 7/5/2
f 8/7/3 6/21/3 5/8/3
f 6/10/4 2/22/4 1/11/4
f 7/13/5 5/23/5 1/14/5
f 4/16/6 2/24/6 6/17/6
